<svg width="1080" height="1080" viewBox="0 0 1080 1080" fill="none" xmlns="http://www.w3.org/2000/svg">
<rect width="1080" height="1080" fill="black"/>
<path fill-rule="evenodd" clip-rule="evenodd" d="M250.098 503.379V574.615H269.216V503.379H250.098ZM270.851 502.07H289.07C297.208 502.07 304.071 503.639 309.66 506.776C315.347 509.816 319.66 514.13 322.602 519.718C325.641 525.307 327.161 531.778 327.161 539.131C327.161 546.583 325.641 553.2 322.602 558.985C319.66 564.77 315.347 569.28 309.66 572.515C303.973 575.751 297.11 577.369 289.07 577.369H270.851V592.664H289.217C300.689 592.664 310.689 590.458 319.219 586.045C327.847 581.634 334.563 575.457 339.367 567.515C344.171 559.475 346.573 550.113 346.573 539.425C346.573 528.739 344.171 519.473 339.367 511.629C334.661 503.688 327.994 497.56 319.366 493.246C310.738 488.932 300.64 486.775 289.07 486.775H270.851V502.07ZM731.052 486.775V592.664H749.583V486.775H731.052ZM777.639 589.134C783.62 592.468 790.581 594.134 798.523 594.134C807.347 594.134 814.651 592.075 820.436 587.958C826.318 583.84 830.486 578.251 832.937 571.192H815.435C814.063 574.231 811.906 576.486 808.965 577.957C806.023 579.428 802.592 580.163 798.67 580.163C791.905 580.163 786.66 578.055 782.934 573.839C780.173 570.555 778.462 566.192 777.803 560.751H834.407C834.604 559.573 834.751 558.397 834.849 557.221C834.947 556.044 834.996 554.769 834.996 553.397C834.996 545.945 833.476 539.425 830.436 533.837C827.397 528.249 823.133 523.934 817.642 520.895C812.151 517.757 805.68 516.189 798.229 516.189C790.385 516.189 783.522 517.856 777.639 521.189C771.757 524.424 767.149 528.984 763.815 534.867C760.579 540.651 758.962 547.367 758.962 555.015C758.962 562.662 760.579 569.427 763.815 575.31C767.149 581.192 771.757 585.8 777.639 589.134ZM778.097 547.809C778.903 543.233 780.515 539.507 782.934 536.631C786.66 532.317 791.66 530.16 797.934 530.16C803.719 530.16 808.229 531.925 811.465 535.455C814.137 538.369 815.705 542.487 816.171 547.809H778.097ZM700.225 592.664C699.735 590.703 699.343 588.546 699.049 586.193C698.921 584.655 698.835 582.908 698.79 580.952C696.82 584.761 694.064 587.782 690.519 590.016C686.107 592.762 680.665 594.134 674.195 594.134C666.645 594.134 660.615 592.272 656.105 588.546C651.693 584.722 649.487 579.624 649.487 573.251C649.487 566.388 651.988 560.946 656.988 556.926C661.988 552.907 669.047 550.211 678.165 548.838L698.167 545.819V542.073C698.167 538.151 697.039 535.21 694.784 533.248C692.627 531.189 689.294 530.16 684.783 530.16C680.372 530.16 676.842 530.994 674.195 532.66C671.645 534.229 670.077 536.533 669.489 539.573H651.693C652.478 532.611 655.811 526.974 661.694 522.66C667.577 518.346 675.469 516.189 685.371 516.189C695.666 516.189 703.461 518.542 708.756 523.248C714.05 527.856 716.697 534.67 716.697 543.691V577.663C716.697 580.016 716.844 582.418 717.138 584.869C717.53 587.321 718.07 589.918 718.756 592.664H700.225ZM698.167 557.588V566.339C698.167 570.163 696.402 573.398 692.872 576.045C689.343 578.692 684.93 580.016 679.636 580.016C676.009 580.016 673.165 579.28 671.106 577.81C669.047 576.241 668.018 574.036 668.018 571.192C668.018 568.054 669.096 565.603 671.253 563.839C673.508 562.074 676.842 560.848 681.254 560.162L698.167 557.588ZM590.232 589.134C596.017 592.468 602.684 594.134 610.233 594.134C616.41 594.134 621.949 593.007 626.852 590.752C631.852 588.399 635.97 585.164 639.205 581.046C642.539 576.83 644.647 571.977 645.529 566.486H627.734C626.656 570.506 624.597 573.643 621.557 575.898C618.518 578.153 614.841 579.28 610.528 579.28C606.605 579.28 603.174 578.3 600.233 576.34C597.291 574.281 595.036 571.437 593.468 567.809C591.899 564.182 591.114 559.917 591.114 555.015C591.114 550.211 591.899 545.995 593.468 542.367C595.036 538.739 597.243 535.945 600.086 533.984C603.027 532.023 606.508 531.043 610.528 531.043C614.841 531.043 618.518 532.17 621.557 534.425C624.597 536.68 626.656 539.818 627.734 543.838H645.529C644.647 538.347 642.588 533.543 639.352 529.425C636.117 525.209 631.999 521.974 626.999 519.718C621.999 517.366 616.41 516.189 610.233 516.189C602.684 516.189 596.017 517.856 590.232 521.189C584.546 524.523 580.035 529.131 576.702 535.014C573.466 540.798 571.849 547.465 571.849 555.015C571.849 562.564 573.466 569.329 576.702 575.31C580.035 581.192 584.546 585.8 590.232 589.134ZM535.706 594.134C525.314 594.134 517.029 591.977 510.852 587.664C504.675 583.251 501.293 577.173 500.705 569.427H517.617C518.108 573.251 519.921 576.143 523.059 578.104C526.196 580.065 530.412 581.046 535.706 581.046C540.51 581.046 544.089 580.31 546.442 578.84C548.893 577.271 550.119 575.065 550.119 572.222C550.119 570.163 549.432 568.496 548.06 567.221C546.687 565.848 544.089 564.721 540.265 563.839L528.206 561.044C519.97 559.28 513.842 556.534 509.822 552.808C505.901 548.985 503.94 544.229 503.94 538.543C503.94 531.582 506.587 526.14 511.881 522.219C517.274 518.199 524.676 516.189 534.088 516.189C543.403 516.189 550.855 518.199 556.443 522.219C562.129 526.14 565.267 531.582 565.855 538.543H548.942C548.452 535.504 546.883 533.2 544.236 531.631C541.687 530.062 538.158 529.278 533.647 529.278C529.432 529.278 526.245 529.964 524.088 531.337C521.931 532.611 520.853 534.524 520.853 537.073C520.853 539.033 521.686 540.7 523.352 542.073C525.019 543.348 527.813 544.474 531.736 545.455L544.678 548.397C552.031 550.063 557.57 552.956 561.296 557.074C565.12 561.191 567.032 566.045 567.032 571.633C567.032 578.79 564.286 584.33 558.796 588.252C553.305 592.174 545.609 594.134 535.706 594.134ZM425.485 517.659L455.487 592.664H472.84L502.99 517.659H483.576L464.531 572.459L445.486 517.659H425.485ZM390.686 594.134C382.745 594.134 375.783 592.468 369.803 589.134C363.92 585.8 359.312 581.192 355.978 575.31C352.743 569.427 351.125 562.662 351.125 555.015C351.125 547.367 352.743 540.651 355.978 534.867C359.312 528.984 363.92 524.424 369.803 521.189C375.685 517.856 382.548 516.189 390.392 516.189C397.844 516.189 404.314 517.757 409.805 520.895C415.295 523.934 419.56 528.249 422.6 533.837C425.639 539.425 427.159 545.945 427.159 553.397C427.159 554.769 427.11 556.044 427.011 557.221C426.913 558.397 426.766 559.573 426.57 560.751H369.966C370.625 566.192 372.335 570.555 375.097 573.839C378.822 578.055 384.068 580.163 390.833 580.163C394.755 580.163 398.187 579.428 401.128 577.957C404.069 576.486 406.226 574.231 407.599 571.192H425.1C422.648 578.251 418.482 583.84 412.599 587.958C406.814 592.075 399.51 594.134 390.686 594.134ZM375.097 536.631C372.679 539.507 371.066 543.233 370.26 547.809H408.334C407.868 542.487 406.299 538.369 403.628 535.455C400.393 531.925 395.882 530.16 390.098 530.16C383.823 530.16 378.822 532.317 375.097 536.631Z" fill="white"/>
</svg>
